<!DOCTYPE svg PUBLIC "-//W3C//DTD SVG 1.1//EN" "http://www.w3.org/Graphics/SVG/1.1/DTD/svg11.dtd">
<!-- Uploaded to: SVG Repo, www.svgrepo.com, Transformed by: SVG Repo Mixer Tools -->
<svg width="800px" height="800px" viewBox="0 0 1024.00 1024.00" class="icon" version="1.1" xmlns="http://www.w3.org/2000/svg" fill="#0d0d0d" stroke="#0d0d0d">
<g id="SVGRepo_bgCarrier" stroke-width="0"/>
<g id="SVGRepo_tracerCarrier" stroke-linecap="round" stroke-linejoin="round" stroke="#CCCCCC" stroke-width="26.624000000000002">
<path d="M725.333333 42.666667a276.714667 276.714667 0 0 0-213.333333 100.224A276.714667 276.714667 0 0 0 298.666667 42.666667C145.749333 42.666667 21.333333 167.082667 21.333333 320c0 263.082667 457.664 640.576 477.162667 656.512a21.226667 21.226667 0 0 0 27.008 0C545.002667 960.576 1002.666667 583.082667 1002.666667 320c0-152.917333-124.416-277.333333-277.333334-277.333333z" fill="#ffffff"/>
</g>
<g id="SVGRepo_iconCarrier">
<path d="M725.333333 42.666667a276.714667 276.714667 0 0 0-213.333333 100.224A276.714667 276.714667 0 0 0 298.666667 42.666667C145.749333 42.666667 21.333333 167.082667 21.333333 320c0 263.082667 457.664 640.576 477.162667 656.512a21.226667 21.226667 0 0 0 27.008 0C545.002667 960.576 1002.666667 583.082667 1002.666667 320c0-152.917333-124.416-277.333333-277.333334-277.333333z" fill="#ffffff"/>
</g>
</svg>